<svg width="40" height="32" viewBox="0 0 40 32" fill="none" xmlns="http://www.w3.org/2000/svg">
<path d="M35.7455 5.69305L29.7341 12.3919C30.0256 11.2131 30.1021 9.47747 30.148 7.95592C30.1899 6.56723 30.3115 5.40733 30.9099 4.11263C31.2408 3.39669 31.6479 2.6688 32.0462 2.05629C32.3712 1.55645 32.7833 1.05423 33.2178 0.646484L33.659 1.03261L34.2013 1.65221L34.6701 2.23588L35.7455 3.94202V5.69305Z" fill="url(#paint0_linear_269_121105)"/>
<path fill-rule="evenodd" clip-rule="evenodd" d="M1.4093 12.7914C1.41001 12.7938 1.41072 12.7961 1.41143 12.7985C1.50327 13.099 1.71714 13.3269 1.93637 13.5604C2.00588 13.6345 2.07593 13.7091 2.1428 13.7868C2.29257 13.9609 2.45921 14.1457 2.61825 14.322C2.69601 14.4083 2.77196 14.4925 2.84323 14.5725C3.05943 14.815 3.24976 15.0669 3.44007 15.3188C3.63072 15.5711 3.82137 15.8235 4.03801 16.0664L7.50889 19.9619L11.8012 24.7771L17.2497 30.8904L23.1659 25.8836L21.546 24.0662L18.5804 20.739L15.4936 17.2758L13.5067 15.0466L11.5058 12.8004C11.3455 12.6205 11.2027 12.4633 11.0696 12.3175L6.88015 7.51522C6.18122 6.71405 5.6023 6.03522 5.33193 4.98804C4.95495 3.528 5.55535 1.44204 6.6881 0.42252C6.72952 0.385243 6.76563 0.350339 6.80077 0.316385C6.83342 0.284827 6.86523 0.254088 6.89965 0.223026L6.40486 0.6307L3.10045 3.3533C1.98552 4.27192 1.08535 5.05763 0.539833 6.42917C0.0951557 7.54718 -0.144506 8.96991 0.25436 10.5128C0.344364 10.8609 0.466883 11.2152 0.626892 11.5735C0.835129 12.0397 1.10223 12.4179 1.4093 12.7914ZM7.02693 0.118164C6.97831 0.154513 6.9374 0.188964 6.89965 0.223026L7.02693 0.118164Z" fill="url(#paint1_linear_269_121105)"/>
<path fill-rule="evenodd" clip-rule="evenodd" d="M38.1258 13.6283C38.07 13.7212 38.0028 13.8152 37.9233 13.9104L37.9199 13.9145L37.8769 13.9627C37.1581 14.7716 36.4391 15.5804 35.7199 16.3889L32.4162 20.1063L28.3307 24.7013L23.3564 30.2969C22.6326 31.3275 21.4181 32.0036 20.0419 32.0036C18.9668 32.0036 17.9903 31.5909 17.2693 30.9189L17.265 30.9261L17.1981 30.8508C17.0672 30.7225 16.9453 30.5855 16.8334 30.4407L9.70264 22.4223C10.3785 22.8848 11.0347 23.3084 11.6347 23.6339C12.4791 24.0919 13.2486 24.4236 13.9438 24.6554C14.7567 24.9264 15.8477 24.9981 16.4584 25.0377C17.7463 25.121 18.8261 24.0696 19.2405 23.6661L19.2736 23.6339L20.697 22.153L23.8492 18.6308L24.8162 17.5431L26.7074 15.4158L28.6119 13.2723C28.7415 13.1265 28.8591 12.9962 28.9693 12.875L33.3544 7.8484C34.0349 7.06839 34.5985 6.40749 34.8618 5.38798C35.2288 3.9665 34.6442 1.93563 33.5414 0.943045C33.5011 0.906762 33.4659 0.872789 33.4317 0.839739L33.4317 0.839728L33.4317 0.839713L33.4316 0.839635L33.4315 0.83954C33.3998 0.808875 33.3689 0.779004 33.3354 0.748818L33.8172 1.14573L37.0343 3.79641C38.1198 4.69077 38.9962 5.45573 39.5273 6.79104C39.9602 7.87951 40.1935 9.26467 39.8052 10.7668C39.7176 11.1057 39.5983 11.4507 39.4425 11.7994C39.1579 12.4368 38.7602 12.9052 38.3005 13.4292L38.1258 13.6283ZM33.2115 0.646729L33.3354 0.748818C33.2987 0.715657 33.2589 0.682117 33.2115 0.646729Z" fill="url(#paint2_linear_269_121105)"/>
<path opacity="0.5" d="M9.81863 10.9075L6.07634 6.573L0.496918 10.5082L1.66334 13.3225L10.7923 23.3028L16.0326 17.8667L9.81863 10.9075Z" fill="url(#paint3_linear_269_121105)"/>
<path fill-rule="evenodd" clip-rule="evenodd" d="M7.14394 0V0.378629C7.14394 0.398573 7.14723 0.449176 7.1523 0.527139C7.20742 1.37424 7.47272 5.4515 6.0083 8.52863C5.85325 8.85443 5.66341 9.15865 5.46698 9.45771C5.45809 9.47253 5.44902 9.48606 5.44025 9.49916C5.43349 9.50923 5.42691 9.51905 5.42072 9.529C5.38877 9.58031 5.37882 9.63757 5.36875 9.6956C5.36739 9.70341 5.36603 9.71124 5.36462 9.71907C5.31814 9.97606 5.28683 10.2338 5.26967 10.492C5.18133 11.8214 5.46797 13.1625 5.99078 14.4709C7.17544 17.4355 9.57268 20.2315 11.5675 22.339C13.1127 23.7984 14.8344 24.9624 16.434 25.0262C15.5736 25.3388 13.3365 25.604 11.2716 24.1645C9.74619 22.502 4.96339 17.1023 2.76267 14.6102L2.16249 13.9034L2.08949 13.82C1.58599 13.2426 0.733893 12.1824 0.433711 11.4725C-0.875412 7.77705 1.08892 5.00422 2.23472 4.07973L3.79367 2.77346L7.14394 0Z" fill="url(#paint4_linear_269_121105)"/>
<defs>
<linearGradient id="paint0_linear_269_121105" x1="33.1994" y1="0.718322" x2="30.6167" y2="11.8966" gradientUnits="userSpaceOnUse">
<stop stop-color="#E8FE65"/>
<stop offset="1" stop-color="#667220"/>
</linearGradient>
<linearGradient id="paint1_linear_269_121105" x1="1.58419" y1="4.47199" x2="12.911" y2="31.449" gradientUnits="userSpaceOnUse">
<stop offset="0.00430546" stop-color="#419721"/>
<stop offset="1" stop-color="#8CEA69"/>
</linearGradient>
<linearGradient id="paint2_linear_269_121105" x1="37.1499" y1="3.27774" x2="18.5272" y2="32.4255" gradientUnits="userSpaceOnUse">
<stop stop-color="#B5C739"/>
<stop offset="0.182425" stop-color="#EBFE64"/>
<stop offset="1" stop-color="#8CEA69"/>
</linearGradient>
<linearGradient id="paint3_linear_269_121105" x1="-1.51701" y1="2.95236" x2="12.3904" y2="18.843" gradientUnits="userSpaceOnUse">
<stop/>
<stop offset="1" stop-opacity="0"/>
</linearGradient>
<linearGradient id="paint4_linear_269_121105" x1="14.2289" y1="28.9543" x2="-4.24553" y2="1.42768" gradientUnits="userSpaceOnUse">
<stop stop-color="#8CEA69"/>
<stop offset="1" stop-color="#EBFE64"/>
</linearGradient>
</defs>
</svg>
