<svg width="248" height="68" viewBox="0 0 248 68" fill="none" xmlns="http://www.w3.org/2000/svg">
<g filter="url(#filter0_b_269_119944)">
<rect width="247.579" height="68" rx="13.8702" fill="url(#paint0_linear_269_119944)" fill-opacity="0.3"/>
<rect x="32" y="16" width="36" height="36" rx="8" fill="url(#paint1_linear_269_119944)"/>
<g clip-path="url(#clip0_269_119944)">
<path fill-rule="evenodd" clip-rule="evenodd" d="M50 25.9375C45.5472 25.9375 41.9375 29.5472 41.9375 34C41.9375 38.4528 45.5472 42.0625 50 42.0625C54.4528 42.0625 58.0625 38.4528 58.0625 34C58.0625 29.5472 54.4528 25.9375 50 25.9375ZM52.5103 33.0681C52.1966 32.7977 52.1615 32.3241 52.4319 32.0104C52.7023 31.6966 53.1759 31.6615 53.4897 31.9319L54.4095 32.7248L54.4374 32.7488C54.6061 32.8941 54.7855 33.0485 54.9166 33.1967C55.0648 33.3642 55.25 33.63 55.25 34C55.25 34.3701 55.0648 34.6358 54.9166 34.8033C54.7855 34.9515 54.6062 35.1059 54.4374 35.2512L54.4095 35.2752L53.4897 36.0681C53.1759 36.3386 52.7023 36.3034 52.4319 35.9897C52.1615 35.676 52.1966 35.2023 52.5103 34.932L53.4303 34.139C53.4914 34.0863 53.5442 34.0408 53.5907 34C53.5442 33.9592 53.4914 33.9138 53.4303 33.861L52.5103 33.0681ZM47.5681 32.0104C47.8385 32.3241 47.8034 32.7977 47.4897 33.0681L46.5698 33.861C46.5086 33.9138 46.4558 33.9592 46.4093 34C46.4558 34.0408 46.5086 34.0863 46.5698 34.139L47.4897 34.932C47.8034 35.2023 47.8385 35.676 47.5681 35.9897C47.2977 36.3034 46.8241 36.3386 46.5103 36.0681L45.5904 35.2752L45.5626 35.2513C45.3939 35.1059 45.2146 34.9515 45.0834 34.8033C44.9352 34.6358 44.75 34.3701 44.75 34C44.75 33.63 44.9352 33.3642 45.0834 33.1967C45.2146 33.0485 45.3939 32.8941 45.5627 32.7488L45.5904 32.7248L46.5103 31.9319C46.8241 31.6615 47.2977 31.6966 47.5681 32.0104ZM51.4618 31.9874C51.5927 31.5944 51.3803 31.1697 50.9874 31.0387C50.5944 30.9077 50.1697 31.1201 50.0387 31.513L48.5387 36.013C48.4077 36.406 48.6201 36.8307 49.013 36.9618C49.406 37.0927 49.8307 36.8803 49.9618 36.4874L51.4618 31.9874Z" fill="#020202"/>
</g>
<path d="M82.4639 29.0132V17.8101H86.7061C87.8831 17.8101 88.8988 18.0549 89.7529 18.5444C90.6071 19.034 91.2451 19.7033 91.667 20.5522C92.0941 21.396 92.3076 22.3752 92.3076 23.4897C92.3076 24.2814 92.18 25.0158 91.9248 25.6929C91.6748 26.3647 91.3154 26.9481 90.8467 27.4429C90.3779 27.9325 89.7868 28.3179 89.0732 28.5991C88.3649 28.8752 87.5758 29.0132 86.7061 29.0132H82.4639ZM84.2295 19.4116V27.4116H86.7061C87.3102 27.4116 87.8571 27.3075 88.3467 27.0991C88.8363 26.8908 89.2399 26.6069 89.5576 26.2476C89.8753 25.8882 90.1201 25.4741 90.292 25.0054C90.4639 24.5314 90.5498 24.0262 90.5498 23.4897C90.5498 22.2762 90.2139 21.2944 89.542 20.5444C88.8753 19.7892 87.93 19.4116 86.7061 19.4116H84.2295ZM99.5498 26.1304L100.987 26.6929C100.716 27.495 100.287 28.1095 99.6982 28.5366C99.1097 28.9585 98.3727 29.1694 97.4873 29.1694C96.3102 29.1694 95.3597 28.8075 94.6357 28.0835C93.9118 27.3543 93.5498 26.383 93.5498 25.1694C93.5498 24.0601 93.891 23.133 94.5732 22.3882C95.2607 21.6434 96.1514 21.271 97.2451 21.271C98.2503 21.271 99.0706 21.5757 99.7061 22.1851C100.347 22.7892 100.667 23.5991 100.667 24.6147C100.667 24.8752 100.641 25.1668 100.589 25.4897H95.2295C95.2295 26.2241 95.4535 26.784 95.9014 27.1694C96.3701 27.5444 96.904 27.7319 97.5029 27.7319C98.0446 27.7319 98.4899 27.5965 98.8389 27.3257C99.193 27.0496 99.43 26.6512 99.5498 26.1304ZM95.2295 24.3726H98.9873L99.0029 24.2319C99.0029 23.7684 98.8363 23.3986 98.5029 23.1226C98.1748 22.8465 97.7503 22.7085 97.2295 22.7085C96.7035 22.7085 96.2555 22.8595 95.8857 23.1616C95.516 23.4637 95.2972 23.8674 95.2295 24.3726ZM103.159 21.4272L105.386 27.3335L107.604 21.4272H109.37L106.347 29.0132H104.425L101.401 21.4272H103.159ZM115.972 26.1304L117.409 26.6929C117.138 27.495 116.709 28.1095 116.12 28.5366C115.532 28.9585 114.795 29.1694 113.909 29.1694C112.732 29.1694 111.782 28.8075 111.058 28.0835C110.334 27.3543 109.972 26.383 109.972 25.1694C109.972 24.0601 110.313 23.133 110.995 22.3882C111.683 21.6434 112.573 21.271 113.667 21.271C114.672 21.271 115.493 21.5757 116.128 22.1851C116.769 22.7892 117.089 23.5991 117.089 24.6147C117.089 24.8752 117.063 25.1668 117.011 25.4897H111.651C111.651 26.2241 111.875 26.784 112.323 27.1694C112.792 27.5444 113.326 27.7319 113.925 27.7319C114.466 27.7319 114.912 27.5965 115.261 27.3257C115.615 27.0496 115.852 26.6512 115.972 26.1304ZM111.651 24.3726H115.409L115.425 24.2319C115.425 23.7684 115.258 23.3986 114.925 23.1226C114.597 22.8465 114.172 22.7085 113.651 22.7085C113.125 22.7085 112.677 22.8595 112.308 23.1616C111.938 23.4637 111.719 23.8674 111.651 24.3726ZM118.917 29.0132V17.8101H120.597V29.0132H118.917ZM123.3 28.0444C122.571 27.2944 122.206 26.3543 122.206 25.2241C122.206 24.0939 122.571 23.1538 123.3 22.4038C124.034 21.6486 124.969 21.271 126.104 21.271C127.24 21.271 128.175 21.6486 128.909 22.4038C129.644 23.1538 130.011 24.0939 130.011 25.2241C130.011 26.3543 129.644 27.2944 128.909 28.0444C128.175 28.7944 127.24 29.1694 126.104 29.1694C124.969 29.1694 124.034 28.7944 123.3 28.0444ZM127.698 26.9741C128.12 26.5158 128.331 25.9325 128.331 25.2241C128.331 24.5158 128.12 23.9325 127.698 23.4741C127.276 23.0158 126.745 22.7866 126.104 22.7866C125.464 22.7866 124.933 23.0158 124.511 23.4741C124.094 23.9325 123.886 24.5158 123.886 25.2241C123.886 25.9325 124.094 26.5158 124.511 26.9741C124.933 27.4272 125.464 27.6538 126.104 27.6538C126.745 27.6538 127.276 27.4272 127.698 26.9741ZM131.604 21.4272H133.222V22.771C133.477 22.3231 133.847 21.9611 134.331 21.6851C134.821 21.409 135.326 21.271 135.847 21.271C136.868 21.271 137.696 21.646 138.331 22.396C138.966 23.1408 139.284 24.0991 139.284 25.271C139.284 26.4325 138.953 27.3726 138.292 28.0913C137.631 28.8101 136.761 29.1694 135.683 29.1694C135.162 29.1694 134.688 29.0679 134.261 28.8647C133.834 28.6564 133.508 28.3543 133.284 27.9585V32.1851H131.604V21.4272ZM135.409 27.6851C136.029 27.6851 136.55 27.4611 136.972 27.0132C137.394 26.5653 137.604 25.9845 137.604 25.271C137.604 24.5575 137.391 23.9663 136.964 23.4976C136.537 23.0236 136.019 22.7866 135.409 22.7866C134.831 22.7866 134.321 23.0236 133.878 23.4976C133.44 23.9663 133.222 24.5575 133.222 25.271C133.222 25.9845 133.438 26.5653 133.87 27.0132C134.302 27.4611 134.815 27.6851 135.409 27.6851ZM146.44 26.1304L147.878 26.6929C147.607 27.495 147.177 28.1095 146.589 28.5366C146 28.9585 145.263 29.1694 144.378 29.1694C143.201 29.1694 142.25 28.8075 141.526 28.0835C140.802 27.3543 140.44 26.383 140.44 25.1694C140.44 24.0601 140.782 23.133 141.464 22.3882C142.151 21.6434 143.042 21.271 144.136 21.271C145.141 21.271 145.961 21.5757 146.597 22.1851C147.237 22.7892 147.558 23.5991 147.558 24.6147C147.558 24.8752 147.532 25.1668 147.479 25.4897H142.12C142.12 26.2241 142.344 26.784 142.792 27.1694C143.261 27.5444 143.795 27.7319 144.394 27.7319C144.935 27.7319 145.381 27.5965 145.729 27.3257C146.084 27.0496 146.321 26.6512 146.44 26.1304ZM142.12 24.3726H145.878L145.894 24.2319C145.894 23.7684 145.727 23.3986 145.394 23.1226C145.065 22.8465 144.641 22.7085 144.12 22.7085C143.594 22.7085 143.146 22.8595 142.776 23.1616C142.407 23.4637 142.188 23.8674 142.12 24.3726ZM149.386 21.4272H151.065V22.5366C151.216 22.1304 151.448 21.8179 151.761 21.5991C152.078 21.3804 152.461 21.271 152.909 21.271C153.534 21.271 154.055 21.4793 154.472 21.896C154.888 22.297 155.097 22.8022 155.097 23.4116C155.097 23.7658 155.06 24.0861 154.987 24.3726H153.323C153.365 24.1851 153.386 23.9715 153.386 23.7319C153.386 23.4351 153.279 23.1903 153.065 22.9976C152.857 22.8049 152.591 22.7085 152.269 22.7085C151.904 22.7085 151.612 22.8231 151.394 23.0522C151.175 23.2814 151.065 23.5887 151.065 23.9741V29.0132H149.386V21.4272ZM155.979 27.0913L157.339 26.3726C157.537 26.8413 157.808 27.1851 158.151 27.4038C158.495 27.6226 158.93 27.7319 159.456 27.7319C159.899 27.7319 160.245 27.6512 160.495 27.4897C160.75 27.3283 160.878 27.1174 160.878 26.8569C160.878 26.508 160.748 26.2476 160.487 26.0757C160.227 25.9038 159.732 25.758 159.003 25.6382C157.269 25.3569 156.401 24.6147 156.401 23.4116C156.401 22.7918 156.675 22.2814 157.222 21.8804C157.774 21.4741 158.443 21.271 159.229 21.271C159.938 21.271 160.513 21.4116 160.956 21.6929C161.404 21.9689 161.756 22.3778 162.011 22.9194L160.737 23.6226C160.508 22.9507 160.011 22.6147 159.245 22.6147C158.87 22.6147 158.555 22.6955 158.3 22.8569C158.045 23.0184 157.917 23.2137 157.917 23.4429C157.917 23.7293 158.052 23.9403 158.323 24.0757C158.594 24.2059 159.099 24.3257 159.839 24.4351C160.761 24.5705 161.43 24.8283 161.847 25.2085C162.269 25.5887 162.479 26.1095 162.479 26.771C162.479 27.4689 162.183 28.0444 161.589 28.4976C161 28.9455 160.269 29.1694 159.394 29.1694C158.539 29.1694 157.823 28.9871 157.245 28.6226C156.667 28.258 156.245 27.7476 155.979 27.0913Z" fill="white"/>
<rect x="81.3154" y="38.6709" width="82.6667" height="3.32886" rx="1.66443" fill="white" fill-opacity="0.2"/>
<rect x="81.3154" y="48.6577" width="134.264" height="3.32886" rx="1.66443" fill="white" fill-opacity="0.2"/>
<rect x="0.55481" y="0.55481" width="246.47" height="66.8904" rx="13.3154" stroke="url(#paint2_linear_269_119944)" stroke-opacity="0.6" stroke-width="1.10962"/>
<rect x="0.55481" y="0.55481" width="246.47" height="66.8904" rx="13.3154" stroke="url(#paint3_linear_269_119944)" stroke-width="1.10962"/>
</g>
<defs>
<filter id="filter0_b_269_119944" x="-23.8568" y="-23.8568" width="295.293" height="115.714" filterUnits="userSpaceOnUse" color-interpolation-filters="sRGB">
<feFlood flood-opacity="0" result="BackgroundImageFix"/>
<feGaussianBlur in="BackgroundImageFix" stdDeviation="11.9284"/>
<feComposite in2="SourceAlpha" operator="in" result="effect1_backgroundBlur_269_119944"/>
<feBlend mode="normal" in="SourceGraphic" in2="effect1_backgroundBlur_269_119944" result="shape"/>
</filter>
<linearGradient id="paint0_linear_269_119944" x1="123.79" y1="0" x2="123.79" y2="68" gradientUnits="userSpaceOnUse">
<stop stop-color="#EBFE64" stop-opacity="0.1"/>
<stop offset="1" stop-color="#8CEA69" stop-opacity="0.1"/>
</linearGradient>
<linearGradient id="paint1_linear_269_119944" x1="32" y1="16" x2="68" y2="52" gradientUnits="userSpaceOnUse">
<stop stop-color="#EBFE64"/>
<stop offset="1" stop-color="#EA6969"/>
</linearGradient>
<linearGradient id="paint2_linear_269_119944" x1="295.056" y1="27.1842" x2="211.54" y2="36.8348" gradientUnits="userSpaceOnUse">
<stop stop-color="white"/>
<stop offset="1" stop-color="#EFEFEF" stop-opacity="0"/>
</linearGradient>
<linearGradient id="paint3_linear_269_119944" x1="0" y1="0" x2="27.078" y2="52.4043" gradientUnits="userSpaceOnUse">
<stop stop-color="white" stop-opacity="0.5"/>
<stop offset="1" stop-color="white" stop-opacity="0"/>
</linearGradient>
<clipPath id="clip0_269_119944">
<rect width="18" height="18" fill="white" transform="translate(41 25)"/>
</clipPath>
</defs>
</svg>
