<svg width="248" height="68" viewBox="0 0 248 68" fill="none" xmlns="http://www.w3.org/2000/svg">
<g filter="url(#filter0_b_269_119953)">
<rect width="247.579" height="68" rx="13.8702" fill="url(#paint0_linear_269_119953)" fill-opacity="0.3"/>
<rect x="32" y="16" width="36" height="36" rx="8" fill="url(#paint1_linear_269_119953)"/>
<g clip-path="url(#clip0_269_119953)">
<path fill-rule="evenodd" clip-rule="evenodd" d="M43.6825 26.2855C44.6627 25.9462 45.9682 25.75 47.375 25.75C48.7818 25.75 50.0873 25.9462 51.0675 26.2855C51.554 26.4539 52.0014 26.6715 52.3419 26.9502C52.6769 27.2244 53 27.6383 53 28.1875V29.5043C53 29.6392 53 29.7067 52.9732 29.7566C52.9519 29.796 52.921 29.8269 52.8816 29.8481C52.8317 29.875 52.7628 29.875 52.625 29.875C51.1273 29.875 49.6917 30.0822 48.5645 30.4724C48.0098 30.6644 47.4269 30.9357 46.9456 31.3296C46.6544 31.5679 46.3072 31.9329 46.0888 32.4253C46.0407 32.5338 46.0167 32.5881 45.9754 32.6125C45.9341 32.6369 45.8806 32.6325 45.7734 32.6234C44.4562 32.5118 43.345 32.2548 42.5096 31.8526C42.3432 31.7724 42.1889 31.6873 42.0468 31.5971C41.9108 31.5108 41.8428 31.4677 41.7964 31.3833C41.75 31.2989 41.75 31.2073 41.75 31.0239V28.1875C41.75 27.6384 42.0731 27.2244 42.4081 26.9502C42.7486 26.6715 43.196 26.4539 43.6825 26.2855ZM43.3581 28.1111C43.5109 27.986 43.7775 27.84 44.1732 27.703C44.9574 27.4315 46.0894 27.25 47.375 27.25C48.6606 27.25 49.7926 27.4315 50.5768 27.703C50.9725 27.84 51.2391 27.986 51.3919 28.1111C51.4413 28.1515 51.4413 28.2235 51.3919 28.2639C51.2391 28.389 50.9725 28.535 50.5768 28.672C49.7926 28.9435 48.6606 29.125 47.375 29.125C46.0894 29.125 44.9574 28.9435 44.1732 28.672C43.7775 28.535 43.5109 28.389 43.3581 28.2639C43.3087 28.2235 43.3087 28.1515 43.3581 28.1111Z" fill="#020202"/>
<path d="M45.875 34.0387C45.875 33.9069 45.875 33.841 45.8357 33.7981C45.7964 33.7551 45.73 33.7492 45.5971 33.7372C44.2203 33.614 42.995 33.3348 42.0216 32.8662C41.9745 32.8435 41.9509 32.8321 41.9357 32.8284C41.851 32.8077 41.7713 32.8578 41.7533 32.943C41.75 32.9584 41.75 32.983 41.75 33.0321V35.3728C41.75 35.5715 41.75 35.6708 41.804 35.7602C41.858 35.8497 41.9349 35.8901 42.0887 35.971C42.2091 36.0342 42.3387 36.0943 42.4779 36.1509C43.2738 36.4752 44.3191 36.6659 45.5583 36.7537C45.7058 36.7642 45.7795 36.7693 45.8272 36.7249C45.875 36.6804 45.875 36.6058 45.875 36.4565V34.0387Z" fill="#020202"/>
<path d="M45.875 38.1851C45.875 38.0508 45.875 37.9836 45.8345 37.9403C45.794 37.8971 45.7263 37.8926 45.5909 37.8838C44.2323 37.7947 43.0186 37.5861 42.0534 37.1929C41.9707 37.1591 41.9293 37.1423 41.8999 37.1423C41.8371 37.1424 41.7849 37.1775 41.7611 37.2356C41.75 37.2629 41.75 37.3055 41.75 37.3908V39.2501C41.75 39.8121 42.1181 40.205 42.4419 40.4405C42.7821 40.688 43.2261 40.8795 43.7073 41.0276C44.2994 41.2098 45.0123 41.3454 45.7956 41.4236C46.0692 41.4509 46.206 41.4645 46.2565 41.3931C46.3069 41.3218 46.2413 41.1822 46.1099 40.9031C45.9686 40.6026 45.875 40.2518 45.875 39.8502V38.1851Z" fill="#020202"/>
<path fill-rule="evenodd" clip-rule="evenodd" d="M52.625 31C51.2182 31 49.9127 31.1962 48.9325 31.5355C48.446 31.7039 47.9986 31.9215 47.6581 32.2002C47.3231 32.4744 47 32.8884 47 33.4375V35.4106C47 35.7501 47 35.9199 47.0934 36.0891C47.1868 36.2583 47.3026 36.3312 47.5341 36.477C48.6688 37.1914 50.4187 37.5623 52.6251 37.5623C54.8314 37.5623 56.5813 37.1914 57.716 36.477C57.9474 36.3313 58.0632 36.2584 58.1566 36.0892C58.25 35.92 58.25 35.7502 58.25 35.4106V33.4377C58.25 32.8885 57.9269 32.4744 57.5919 32.2002C57.2514 31.9215 56.804 31.7039 56.3175 31.5355C55.3373 31.1962 54.0318 31 52.625 31ZM49.4232 32.953C49.0275 33.09 48.7609 33.236 48.6081 33.3611C48.5587 33.4015 48.5587 33.4735 48.6081 33.5139C48.7609 33.639 49.0275 33.785 49.4232 33.922C50.2074 34.1935 51.3394 34.375 52.625 34.375C53.9106 34.375 55.0426 34.1935 55.8268 33.922C56.2225 33.785 56.4891 33.639 56.6419 33.5139C56.6913 33.4735 56.6913 33.4015 56.6419 33.3611C56.4891 33.236 56.2225 33.09 55.8268 32.953C55.0426 32.6815 53.9106 32.5 52.625 32.5C51.3394 32.5 50.2074 32.6815 49.4232 32.953Z" fill="#020202"/>
<path d="M52.6251 38.6873C54.761 38.6873 56.6424 38.3586 58.0188 37.6033C58.1238 37.5456 58.1764 37.5168 58.2132 37.5386C58.25 37.5604 58.25 37.6192 58.25 37.7368V39.8501C58.25 40.4013 57.9189 40.8111 57.5855 41.078C57.2449 41.3505 56.7981 41.5629 56.3126 41.7273C55.3341 42.0585 54.0304 42.2501 52.625 42.2501C51.2196 42.2501 49.9159 42.0585 48.9374 41.7273C48.4519 41.5629 48.0051 41.3505 47.6645 41.078C47.3311 40.8111 47 40.4013 47 39.8501V37.7367C47 37.6191 47 37.5603 47.0368 37.5385C47.0736 37.5168 47.1261 37.5456 47.2312 37.6032C48.6077 38.3586 50.4891 38.6873 52.6251 38.6873Z" fill="#020202"/>
</g>
<path d="M82.4639 17.8103H84.2295V27.3337H90.9482V29.0134H82.4639V17.8103ZM92.6045 21.4275H94.2842V29.0134H92.6045V21.4275ZM92.5264 20.1306V18.2947H94.3623V20.1306H92.5264ZM101.894 32.1853V27.7322C101.649 28.1905 101.31 28.5447 100.878 28.7947C100.446 29.0447 99.9561 29.1697 99.4092 29.1697C98.3571 29.1697 97.5081 28.8051 96.8623 28.0759C96.2165 27.3468 95.8936 26.4119 95.8936 25.2712C95.8936 24.0994 96.2165 23.141 96.8623 22.3962C97.5081 21.6462 98.3571 21.2712 99.4092 21.2712C99.9873 21.2712 100.5 21.4067 100.948 21.6775C101.401 21.9431 101.737 22.3077 101.956 22.7712V21.4275H103.573V32.1853H101.894ZM101.308 27.0212C101.74 26.5733 101.956 25.99 101.956 25.2712C101.956 24.5525 101.737 23.9587 101.3 23.49C100.868 23.0212 100.354 22.7869 99.7607 22.7869C99.1514 22.7869 98.6331 23.0212 98.2061 23.49C97.7842 23.9587 97.5732 24.5525 97.5732 25.2712C97.5732 25.9952 97.7816 26.5811 98.1982 27.0291C98.6357 27.4666 99.1566 27.6853 99.7607 27.6853C100.36 27.6853 100.875 27.4639 101.308 27.0212ZM110.737 21.4275H112.417V29.0134H110.737V27.8103C110.196 28.7166 109.412 29.1697 108.386 29.1697C107.532 29.1697 106.857 28.9249 106.362 28.4353C105.868 27.9457 105.62 27.2322 105.62 26.2947V21.4275H107.3V25.8962C107.3 26.49 107.433 26.9457 107.698 27.2634C107.964 27.5759 108.339 27.7322 108.823 27.7322C109.396 27.7322 109.857 27.5212 110.206 27.0994C110.56 26.6775 110.737 26.115 110.737 25.4119V21.4275ZM114.464 21.4275H116.144V29.0134H114.464V21.4275ZM114.386 20.1306V18.2947H116.222V20.1306H114.386ZM117.753 25.2712C117.753 24.0994 118.076 23.141 118.722 22.3962C119.368 21.6462 120.216 21.2712 121.269 21.2712C121.841 21.2712 122.344 21.4041 122.776 21.6697C123.209 21.9353 123.534 22.3025 123.753 22.7712V17.8103H125.433V29.0134H123.815V27.7322C123.586 28.1853 123.245 28.5395 122.792 28.7947C122.344 29.0447 121.836 29.1697 121.269 29.1697C120.216 29.1697 119.368 28.8051 118.722 28.0759C118.076 27.3468 117.753 26.4119 117.753 25.2712ZM123.167 27.0212C123.599 26.5733 123.815 25.99 123.815 25.2712C123.815 24.5525 123.597 23.9587 123.159 23.49C122.727 23.0212 122.214 22.7869 121.62 22.7869C121.011 22.7869 120.493 23.0212 120.065 23.49C119.644 23.9587 119.433 24.5525 119.433 25.2712C119.433 25.9952 119.641 26.5811 120.058 27.0291C120.495 27.4666 121.016 27.6853 121.62 27.6853C122.219 27.6853 122.735 27.4639 123.167 27.0212ZM127.479 21.4275H129.159V29.0134H127.479V21.4275ZM127.401 20.1306V18.2947H129.237V20.1306H127.401ZM132.034 26.615V22.8728H130.511V21.4275H132.034V19.0134H133.714V21.4275H136.589V22.8728H133.714V26.6931C133.714 27.0264 133.802 27.2843 133.979 27.4666C134.162 27.6436 134.391 27.7322 134.667 27.7322C134.99 27.7322 135.237 27.628 135.409 27.4197C135.581 27.2113 135.683 26.8884 135.714 26.4509L137.308 26.7712C137.24 27.5317 136.979 28.1228 136.526 28.5447C136.073 28.9613 135.482 29.1697 134.753 29.1697C133.873 29.1697 133.198 28.9457 132.729 28.4978C132.266 28.0499 132.034 27.4223 132.034 26.615ZM143.604 21.4275H145.362L140.237 32.1853H138.479L140.511 27.8962L137.519 21.4275H139.331L141.394 26.0681L143.604 21.4275ZM152.308 24.5369V29.0134H150.542V17.8103H155.745C156.865 17.8103 157.745 18.1332 158.386 18.7791C159.026 19.4249 159.347 20.2218 159.347 21.1697C159.347 21.6124 159.266 22.0343 159.104 22.4353C158.943 22.8363 158.714 23.1931 158.417 23.5056C158.125 23.8181 157.748 24.0681 157.284 24.2556C156.821 24.4431 156.308 24.5369 155.745 24.5369H152.308ZM152.308 22.8572H155.589C156.157 22.8572 156.618 22.7035 156.972 22.3962C157.326 22.0889 157.503 21.6801 157.503 21.1697C157.503 20.6593 157.326 20.253 156.972 19.9509C156.623 19.6436 156.162 19.49 155.589 19.49H152.308V22.8572ZM160.87 21.4275H162.55V22.5369C162.701 22.1306 162.933 21.8181 163.245 21.5994C163.563 21.3806 163.946 21.2712 164.394 21.2712C165.019 21.2712 165.539 21.4796 165.956 21.8962C166.373 22.2973 166.581 22.8025 166.581 23.4119C166.581 23.766 166.545 24.0863 166.472 24.3728H164.808C164.849 24.1853 164.87 23.9718 164.87 23.7322C164.87 23.4353 164.763 23.1905 164.55 22.9978C164.341 22.8051 164.076 22.7087 163.753 22.7087C163.388 22.7087 163.097 22.8233 162.878 23.0525C162.659 23.2817 162.55 23.5889 162.55 23.9744V29.0134H160.87V21.4275ZM168.69 28.0447C167.961 27.2947 167.597 26.3546 167.597 25.2244C167.597 24.0942 167.961 23.1541 168.69 22.4041C169.425 21.6488 170.36 21.2712 171.495 21.2712C172.631 21.2712 173.565 21.6488 174.3 22.4041C175.034 23.1541 175.401 24.0942 175.401 25.2244C175.401 26.3546 175.034 27.2947 174.3 28.0447C173.565 28.7947 172.631 29.1697 171.495 29.1697C170.36 29.1697 169.425 28.7947 168.69 28.0447ZM173.089 26.9744C173.511 26.516 173.722 25.9327 173.722 25.2244C173.722 24.516 173.511 23.9327 173.089 23.4744C172.667 23.016 172.136 22.7869 171.495 22.7869C170.854 22.7869 170.323 23.016 169.901 23.4744C169.485 23.9327 169.276 24.516 169.276 25.2244C169.276 25.9327 169.485 26.516 169.901 26.9744C170.323 27.4275 170.854 27.6541 171.495 27.6541C172.136 27.6541 172.667 27.4275 173.089 26.9744ZM177.753 21.4275L179.979 27.3337L182.198 21.4275H183.964L180.94 29.0134H179.019L175.995 21.4275H177.753ZM185.276 21.4275H186.956V29.0134H185.276V21.4275ZM185.198 20.1306V18.2947H187.034V20.1306H185.198ZM188.565 25.2712C188.565 24.0994 188.888 23.141 189.534 22.3962C190.18 21.6462 191.029 21.2712 192.081 21.2712C192.654 21.2712 193.157 21.4041 193.589 21.6697C194.021 21.9353 194.347 22.3025 194.565 22.7712V17.8103H196.245V29.0134H194.628V27.7322C194.399 28.1853 194.058 28.5395 193.604 28.7947C193.157 29.0447 192.649 29.1697 192.081 29.1697C191.029 29.1697 190.18 28.8051 189.534 28.0759C188.888 27.3468 188.565 26.4119 188.565 25.2712ZM193.979 27.0212C194.412 26.5733 194.628 25.99 194.628 25.2712C194.628 24.5525 194.409 23.9587 193.972 23.49C193.539 23.0212 193.026 22.7869 192.433 22.7869C191.823 22.7869 191.305 23.0212 190.878 23.49C190.456 23.9587 190.245 24.5525 190.245 25.2712C190.245 25.9952 190.453 26.5811 190.87 27.0291C191.308 27.4666 191.828 27.6853 192.433 27.6853C193.032 27.6853 193.547 27.4639 193.979 27.0212ZM203.847 26.1306L205.284 26.6931C205.013 27.4952 204.584 28.1098 203.995 28.5369C203.407 28.9587 202.67 29.1697 201.784 29.1697C200.607 29.1697 199.657 28.8077 198.933 28.0837C198.209 27.3546 197.847 26.3832 197.847 25.1697C197.847 24.0603 198.188 23.1332 198.87 22.3884C199.558 21.6436 200.448 21.2712 201.542 21.2712C202.547 21.2712 203.368 21.5759 204.003 22.1853C204.644 22.7895 204.964 23.5994 204.964 24.615C204.964 24.8754 204.938 25.1671 204.886 25.49H199.526C199.526 26.2244 199.75 26.7843 200.198 27.1697C200.667 27.5447 201.201 27.7322 201.8 27.7322C202.341 27.7322 202.787 27.5968 203.136 27.3259C203.49 27.0499 203.727 26.6514 203.847 26.1306ZM199.526 24.3728H203.284L203.3 24.2322C203.3 23.7686 203.133 23.3988 202.8 23.1228C202.472 22.8468 202.047 22.7087 201.526 22.7087C201 22.7087 200.552 22.8598 200.183 23.1619C199.813 23.4639 199.594 23.8676 199.526 24.3728ZM206.792 21.4275H208.472V22.5369C208.623 22.1306 208.854 21.8181 209.167 21.5994C209.485 21.3806 209.868 21.2712 210.315 21.2712C210.94 21.2712 211.461 21.4796 211.878 21.8962C212.295 22.2973 212.503 22.8025 212.503 23.4119C212.503 23.766 212.466 24.0863 212.394 24.3728H210.729C210.771 24.1853 210.792 23.9718 210.792 23.7322C210.792 23.4353 210.685 23.1905 210.472 22.9978C210.263 22.8051 209.998 22.7087 209.675 22.7087C209.31 22.7087 209.019 22.8233 208.8 23.0525C208.581 23.2817 208.472 23.5889 208.472 23.9744V29.0134H206.792V21.4275Z" fill="white"/>
<rect x="81.3154" y="38.6711" width="82.6667" height="3.32886" rx="1.66443" fill="white" fill-opacity="0.2"/>
<rect x="81.3154" y="48.6577" width="134.264" height="3.32886" rx="1.66443" fill="white" fill-opacity="0.2"/>
<rect x="0.55481" y="0.55481" width="246.47" height="66.8904" rx="13.3154" stroke="url(#paint2_linear_269_119953)" stroke-opacity="0.6" stroke-width="1.10962"/>
<rect x="0.55481" y="0.55481" width="246.47" height="66.8904" rx="13.3154" stroke="url(#paint3_linear_269_119953)" stroke-width="1.10962"/>
</g>
<defs>
<filter id="filter0_b_269_119953" x="-23.8568" y="-23.8568" width="295.293" height="115.714" filterUnits="userSpaceOnUse" color-interpolation-filters="sRGB">
<feFlood flood-opacity="0" result="BackgroundImageFix"/>
<feGaussianBlur in="BackgroundImageFix" stdDeviation="11.9284"/>
<feComposite in2="SourceAlpha" operator="in" result="effect1_backgroundBlur_269_119953"/>
<feBlend mode="normal" in="SourceGraphic" in2="effect1_backgroundBlur_269_119953" result="shape"/>
</filter>
<linearGradient id="paint0_linear_269_119953" x1="123.79" y1="0" x2="123.79" y2="68" gradientUnits="userSpaceOnUse">
<stop stop-color="#EBFE64" stop-opacity="0.1"/>
<stop offset="1" stop-color="#8CEA69" stop-opacity="0.1"/>
</linearGradient>
<linearGradient id="paint1_linear_269_119953" x1="50" y1="16" x2="50" y2="52" gradientUnits="userSpaceOnUse">
<stop stop-color="#EBFE64"/>
<stop offset="1" stop-color="#8CEA69"/>
</linearGradient>
<linearGradient id="paint2_linear_269_119953" x1="295.056" y1="27.1842" x2="211.54" y2="36.8348" gradientUnits="userSpaceOnUse">
<stop stop-color="white"/>
<stop offset="1" stop-color="#EFEFEF" stop-opacity="0"/>
</linearGradient>
<linearGradient id="paint3_linear_269_119953" x1="0" y1="0" x2="27.078" y2="52.4043" gradientUnits="userSpaceOnUse">
<stop stop-color="white" stop-opacity="0.5"/>
<stop offset="1" stop-color="white" stop-opacity="0"/>
</linearGradient>
<clipPath id="clip0_269_119953">
<rect width="18" height="18" fill="white" transform="translate(41 25)"/>
</clipPath>
</defs>
</svg>
