<svg width="28" height="28" viewBox="0 0 28 28" fill="none" xmlns="http://www.w3.org/2000/svg">
<path fill-rule="evenodd" clip-rule="evenodd" d="M21.0827 0.574039C19.2915 0.333226 16.9972 0.333239 14.0763 0.333252H13.9238C11.0029 0.333239 8.70863 0.333226 6.9174 0.574039C5.08187 0.820826 3.62552 1.33688 2.48125 2.48113C1.337 3.6254 0.820948 5.08175 0.574161 6.91728C0.333348 8.70851 0.333361 11.0027 0.333374 13.9237V14.0762C0.333361 16.9971 0.333348 19.2914 0.574161 21.0826C0.820948 22.9181 1.337 24.3745 2.48125 25.5187C3.62552 26.663 5.08187 27.179 6.9174 27.4258C8.70863 27.6666 11.0028 27.6666 13.9238 27.6666H14.0763C16.9972 27.6666 19.2915 27.6666 21.0827 27.4258C22.9182 27.179 24.3746 26.663 25.5188 25.5187C26.6631 24.3745 27.1791 22.9181 27.4259 21.0826C27.6667 19.2914 27.6667 16.9971 27.6667 14.0762V13.9237C27.6667 11.0027 27.6667 8.70851 27.4259 6.91728C27.1791 5.08175 26.6631 3.6254 25.5188 2.48113C24.3746 1.33688 22.9182 0.820826 21.0827 0.574039ZM19.3334 7.66659C18.7811 7.66659 18.3334 8.11431 18.3334 8.66659C18.3334 9.21887 18.7811 9.66659 19.3334 9.66659C19.5799 9.66659 19.8207 9.87813 19.8207 10.1904V11.845C19.8207 12.5066 20.0771 13.1459 20.5407 13.6209L20.9107 13.9999L20.5407 14.379C20.0771 14.8539 19.8207 15.4933 19.8207 16.1549V17.8094C19.8207 18.1217 19.5799 18.3333 19.3334 18.3333C18.7811 18.3333 18.3334 18.781 18.3334 19.3333C18.3334 19.8855 18.7811 20.3333 19.3334 20.3333C20.7298 20.3333 21.8207 19.1803 21.8207 17.8094V16.1549C21.8207 16.0083 21.8778 15.8725 21.972 15.7759L22.4978 15.2371C23.1674 14.5511 23.1675 13.4487 22.4978 12.7627L21.972 12.2239C21.8778 12.1274 21.8207 11.9915 21.8207 11.845V10.1904C21.8207 8.81951 20.7298 7.66659 19.3334 7.66659ZM9.66671 8.66659C9.66671 8.11431 9.21899 7.66659 8.66671 7.66659C7.27029 7.66659 6.17935 8.81951 6.17935 10.1904V11.845C6.17935 11.9915 6.12227 12.1274 6.02811 12.2239L5.50224 12.7627C4.83264 13.4487 4.83264 14.5511 5.50224 15.2371L6.02811 15.7759C6.12227 15.8725 6.17935 16.0083 6.17935 16.1549V17.8094C6.17935 19.1803 7.27029 20.3333 8.66671 20.3333C9.21899 20.3333 9.66671 19.8855 9.66671 19.3333C9.66671 18.781 9.21899 18.3333 8.66671 18.3333C8.42024 18.3333 8.17935 18.1217 8.17935 17.8094V16.1549C8.17935 15.4933 7.92303 14.8539 7.45933 14.379L7.0894 13.9999L7.45933 13.6209C7.92303 13.1459 8.17935 12.5066 8.17935 11.845V10.1904C8.17935 9.87813 8.42024 9.66659 8.66671 9.66659C9.21899 9.66659 9.66671 9.21887 9.66671 8.66659ZM11.3334 12.6666C10.597 12.6666 10 13.2635 10 13.9999C10 14.7363 10.597 15.3333 11.3334 15.3333H11.3454C12.0816 15.3333 12.6787 14.7363 12.6787 13.9999C12.6787 13.2635 12.0816 12.6666 11.3454 12.6666H11.3334ZM16.6547 12.6666C15.9184 12.6666 15.3214 13.2635 15.3214 13.9999C15.3214 14.7363 15.9184 15.3333 16.6547 15.3333H16.6667C17.4031 15.3333 18 14.7363 18 13.9999C18 13.2635 17.4031 12.6666 16.6667 12.6666H16.6547Z" fill="white"/>
</svg>
