<svg width="28" height="28" viewBox="0 0 28 28" fill="none" xmlns="http://www.w3.org/2000/svg">
<path fill-rule="evenodd" clip-rule="evenodd" d="M20.7493 0.240787C18.9581 -2.64247e-05 16.6639 -1.31349e-05 13.7429 1.98413e-07H13.5904C10.6695 -1.31349e-05 8.37525 -2.64247e-05 6.58403 0.240787C4.74849 0.487574 3.29215 1.00361 2.14788 2.14788C1.00361 3.29215 0.487574 4.74849 0.240787 6.58403C-2.64247e-05 8.37525 -1.31349e-05 10.6695 1.98413e-07 13.5904V13.7429C-1.31349e-05 16.6639 -2.64247e-05 18.9581 0.240787 20.7493C0.487574 22.5848 1.00361 24.0412 2.14788 25.1855C3.29215 26.3297 4.74849 26.8457 6.58403 27.0925C8.37525 27.3333 10.6695 27.3333 13.5904 27.3333H13.7429C16.6639 27.3333 18.9581 27.3333 20.7493 27.0925C22.5848 26.8457 24.0412 26.3297 25.1855 25.1855C26.3297 24.0412 26.8457 22.5848 27.0925 20.7493C27.3333 18.9581 27.3333 16.6639 27.3333 13.7429V13.5904C27.3333 10.6695 27.3333 8.37525 27.0925 6.58403C26.8457 4.74849 26.3297 3.29215 25.1855 2.14788C24.0412 1.00361 22.5848 0.487574 20.7493 0.240787ZM7 6C6.62448 6 6.2806 6.21039 6.10964 6.54475C5.93868 6.87911 5.96945 7.28105 6.18932 7.58549L11.2821 14.6371L6.29289 19.6263C5.90237 20.0168 5.90237 20.6499 6.29289 21.0404C6.68343 21.4309 7.31659 21.4309 7.70711 21.0404L12.4683 16.2793L15.8189 20.9188C16.0069 21.1792 16.3085 21.3333 16.6296 21.3333H20.3333C20.7088 21.3333 21.0528 21.1229 21.2237 20.7885C21.3947 20.4543 21.3639 20.0523 21.144 19.7479L16.0512 12.6963L21.0404 7.70711C21.4309 7.31659 21.4309 6.68341 21.0404 6.29289C20.6499 5.90237 20.0168 5.90237 19.6263 6.29289L14.8651 11.054L11.5144 6.41451C11.3264 6.1542 11.0248 6 10.7037 6H7Z" fill="white"/>
</svg>
