<svg width="28" height="28" viewBox="0 0 28 28" fill="none" xmlns="http://www.w3.org/2000/svg">
<path fill-rule="evenodd" clip-rule="evenodd" d="M13.5904 1.98413e-07H13.7429C16.6639 -1.31349e-05 18.9581 -2.64247e-05 20.7493 0.240787C22.5848 0.487574 24.0412 1.00361 25.1855 2.14788C26.3297 3.29215 26.8457 4.74849 27.0925 6.58403C27.3333 8.37525 27.3333 10.6695 27.3333 13.5904V13.7429C27.3333 16.6639 27.3333 18.9581 27.0925 20.7493C26.8457 22.5848 26.3297 24.0412 25.1855 25.1855C24.0412 26.3297 22.5848 26.8457 20.7493 27.0925C18.9581 27.3333 16.6639 27.3333 13.7429 27.3333H13.5904C10.6695 27.3333 8.37525 27.3333 6.58403 27.0925C4.74849 26.8457 3.29215 26.3297 2.14788 25.1855C1.00363 24.0412 0.487574 22.5848 0.240787 20.7493C-2.64247e-05 18.9581 -1.31349e-05 16.6639 1.98413e-07 13.7429V13.5904C-1.31349e-05 10.6695 -2.64247e-05 8.37525 0.240787 6.58403C0.487574 4.74849 1.00363 3.29215 2.14788 2.14788C3.29215 1.00361 4.74849 0.487574 6.58403 0.240787C8.37524 -2.64247e-05 10.6695 -1.31349e-05 13.5904 1.98413e-07ZM8.33359 11.6667C8.33359 10.9303 7.73664 10.3333 7.00025 10.3333C6.26388 10.3333 5.66692 10.9303 5.66692 11.6667V20.3333C5.66692 21.0697 6.26388 21.6667 7.00025 21.6667C7.73664 21.6667 8.33359 21.0697 8.33359 20.3333V11.6667ZM12.3336 9.66667C12.8741 9.66667 13.3395 9.98827 13.5488 10.4505C14.3593 9.95333 15.3129 9.66667 16.3336 9.66667C19.2791 9.66667 21.6669 12.0545 21.6669 15V20.3333C21.6669 21.0697 21.07 21.6667 20.3336 21.6667C19.5972 21.6667 19.0003 21.0697 19.0003 20.3333V15C19.0003 13.5272 17.8064 12.3333 16.3336 12.3333C14.8608 12.3333 13.6669 13.5272 13.6669 15V20.3333C13.6669 21.0697 13.07 21.6667 12.3336 21.6667C11.5972 21.6667 11.0003 21.0697 11.0003 20.3333V11C11.0003 10.2636 11.5972 9.66667 12.3336 9.66667ZM8.67735 7C8.67735 7.92048 7.93115 8.66667 7.01068 8.66667H6.99869C6.07823 8.66667 5.33203 7.92048 5.33203 7C5.33203 6.07952 6.07823 5.33333 6.99869 5.33333H7.01068C7.93115 5.33333 8.67735 6.07952 8.67735 7Z" fill="white"/>
</svg>
