<svg width="44" height="44" viewBox="0 0 44 44" fill="none" xmlns="http://www.w3.org/2000/svg">
<rect width="44" height="44" rx="8" fill="url(#paint0_linear_269_120437)"/>
<path fill-rule="evenodd" clip-rule="evenodd" d="M20.9648 11.7589C20.9474 11.6871 20.9066 11.6858 20.8252 11.6833C20.7212 11.6801 20.5957 11.6801 20.4452 11.6801C18.8426 11.68 17.5637 11.68 16.5606 11.8095C15.5243 11.9432 14.6709 12.2269 13.9958 12.8751C13.3206 13.5232 13.0251 14.3425 12.8858 15.3373C12.7509 16.3002 12.751 17.528 12.751 19.0665V24.9336C12.751 26.472 12.7509 27.6999 12.8858 28.6628C13.0251 29.6577 13.3206 30.4769 13.9958 31.125C14.6709 31.7731 15.5243 32.0568 16.5606 32.1906C17.5637 32.3201 18.8426 32.3201 20.4452 32.3201H20.5567C22.1593 32.3201 23.4383 32.3201 24.4414 32.1906C25.4776 32.0568 26.331 31.7731 27.0062 31.125C27.6813 30.4769 27.9768 29.6577 28.1161 28.6628C28.251 27.6999 28.251 26.472 28.251 24.9335V23.3656C28.251 23.104 28.251 22.9732 28.1946 22.8978C28.1531 22.8424 28.1007 22.8071 28.0321 22.7886C27.9392 22.7635 27.8041 22.8107 27.534 22.905C27.2137 23.0172 26.6905 23.2003 26.0018 23.2003C25.313 23.2004 24.7898 23.0172 24.4695 22.905C20.3235 21.4572 18.6911 17.6688 19.4235 13.9633L19.4268 13.9461C19.4468 13.8443 19.49 13.6239 19.5496 13.4336C19.6302 13.1761 19.7944 12.7702 20.1693 12.3902C20.3939 12.1625 20.6422 12.005 20.8487 11.8991C20.9377 11.8534 20.9822 11.8306 20.9648 11.7589ZM19.501 27.7601C18.9487 27.7601 18.501 28.1898 18.501 28.7201C18.501 29.2503 18.9487 29.6801 19.501 29.6801H21.501C22.0533 29.6801 22.501 29.2503 22.501 28.7201C22.501 28.1898 22.0533 27.7601 21.501 27.7601H19.501Z" fill="#020202"/>
<path d="M23.8229 12.2299C24.409 11.953 25.1182 11.6801 25.9992 11.6801C26.8802 11.6801 27.5897 11.953 28.176 12.2299C28.3705 12.3217 28.5413 12.4076 28.6981 12.4865C29.0518 12.6645 29.3345 12.8067 29.6593 12.9011C29.8632 12.9604 30.0699 13.0205 30.2144 13.0721C30.3402 13.1171 30.5675 13.2026 30.7425 13.3799C30.8975 13.537 30.9716 13.7097 31.0147 13.8475C31.0507 13.9625 31.0813 14.1175 31.1038 14.2314C31.7239 17.3671 30.3593 20.3855 27.0203 21.5514C26.7132 21.6588 26.4234 21.7601 26.0008 21.7601C25.5781 21.7601 25.2883 21.6588 24.9812 21.5514C21.6423 20.3856 20.2762 17.3674 20.8962 14.2315C20.9186 14.1176 20.9492 13.9626 20.9852 13.8476C21.0283 13.7098 21.1024 13.5371 21.2574 13.3801C21.4324 13.2027 21.6596 13.1172 21.7855 13.0722C21.9299 13.0206 22.1367 12.9605 22.3406 12.9011C22.6651 12.8067 22.9475 12.6645 23.301 12.4866C23.4577 12.4077 23.6284 12.3218 23.8229 12.2299Z" fill="#020202"/>
<defs>
<linearGradient id="paint0_linear_269_120437" x1="22" y1="0" x2="22" y2="44" gradientUnits="userSpaceOnUse">
<stop stop-color="#EBFE64"/>
<stop offset="1" stop-color="#8CEA69"/>
</linearGradient>
</defs>
</svg>
