<svg width="260" height="68" viewBox="0 0 260 68" fill="none" xmlns="http://www.w3.org/2000/svg">
<g filter="url(#filter0_b_269_119934)">
<rect width="259.315" height="68" rx="13.8702" fill="url(#paint0_linear_269_119934)" fill-opacity="0.3"/>
<rect x="32" y="16" width="36" height="36" rx="8" fill="url(#paint1_linear_269_119934)"/>
<path fill-rule="evenodd" clip-rule="evenodd" d="M47.817 40.9371C48.3535 41.3145 49.2595 41.3135 50.0009 41.3125C50.7422 41.3135 51.6474 41.3145 52.184 40.9371C52.7195 40.5606 52.8926 40.0772 53.1025 39.4914C53.1353 39.4001 53.1926 39.236 53.2224 39.1441L56.2094 40.47C56.429 40.5674 56.6861 40.5147 56.8496 40.3389C58.1183 38.9739 58.2229 37.375 57.9199 36.0577C57.6226 34.7649 56.9225 33.6791 56.4571 33.2077C56.3514 33.1007 56.2073 33.0405 56.0568 33.0405C55.9064 33.0405 55.7623 33.1007 55.6566 33.2077C55.1814 33.689 54.6734 34.5201 54.461 35.8302C54.461 35.8302 53.9351 35.6306 53.8355 35.5812C53.804 35.5695 53.7373 35.5208 53.7222 35.4194C53.7 35.2962 53.6847 35.127 53.6606 34.8503C53.5082 33.1031 53.0093 31.4345 52.3982 30.0473C51.7904 28.6672 51.0553 27.5288 50.4036 26.858C50.2976 26.749 50.1528 26.6875 50.0009 26.6875C49.8488 26.6875 49.7033 26.749 49.5974 26.858C48.9457 27.5288 48.2106 28.6672 47.6028 30.0473C46.9918 31.4345 46.4927 33.1031 46.3404 34.8503C46.3163 35.127 46.301 35.2962 46.2788 35.4194C46.2637 35.5208 46.197 35.5695 46.1655 35.5812C46.0659 35.6306 45.5399 35.8302 45.5399 35.8302C45.3276 34.5201 44.8196 33.689 44.3444 33.2077C44.2387 33.1007 44.0945 33.0405 43.9441 33.0405C43.7937 33.0405 43.6496 33.1007 43.5439 33.2077C43.0784 33.6791 42.3784 34.7649 42.0811 36.0577C41.7781 37.375 41.8826 38.9739 43.1513 40.3389C43.3148 40.5147 43.572 40.5674 43.7915 40.47L46.7785 39.1441C46.8083 39.236 46.8656 39.4001 46.8985 39.4914C47.1083 40.0772 47.2815 40.5606 47.817 40.9371ZM50.7512 32.5C50.7512 32.0858 50.4155 31.75 50.0012 31.75C49.587 31.75 49.2512 32.0858 49.2512 32.5V33.25C49.2512 33.6642 49.587 34 50.0012 34C50.4155 34 50.7512 33.6642 50.7512 33.25V32.5Z" fill="#020202"/>
<path fill-rule="evenodd" clip-rule="evenodd" d="M44.7505 27.4375C44.7505 27.0233 44.4147 26.6875 44.0005 26.6875C43.5863 26.6875 43.2505 27.0233 43.2505 27.4375V28.1875C43.2505 28.6017 43.5863 28.9375 44.0005 28.9375C44.4147 28.9375 44.7505 28.6017 44.7505 28.1875V27.4375ZM44.7505 30.4375C44.7505 30.0233 44.4147 29.6875 44.0005 29.6875C43.5863 29.6875 43.2505 30.0233 43.2505 30.4375V31.1875C43.2505 31.6017 43.5863 31.9375 44.0005 31.9375C44.4147 31.9375 44.7505 31.6017 44.7505 31.1875V30.4375ZM56.7505 27.4375C56.7505 27.0233 56.4147 26.6875 56.0005 26.6875C55.5863 26.6875 55.2505 27.0233 55.2505 27.4375V28.1875C55.2505 28.6017 55.5863 28.9375 56.0005 28.9375C56.4147 28.9375 56.7505 28.6017 56.7505 28.1875V27.4375ZM56.7505 30.4375C56.7505 30.0233 56.4147 29.6875 56.0005 29.6875C55.5863 29.6875 55.2505 30.0233 55.2505 30.4375V31.1875C55.2505 31.6017 55.5863 31.9375 56.0005 31.9375C56.4147 31.9375 56.7505 31.6017 56.7505 31.1875V30.4375Z" fill="#020202"/>
<path d="M81.5107 29.0134L86.1123 17.8103H88.5498L93.1592 29.0134H91.1748L90.0967 26.2947H84.5654L83.4951 29.0134H81.5107ZM85.1904 24.6931H89.4717L87.3311 19.2712L85.1904 24.6931ZM94.4951 29.0134V17.8103H96.2607V29.0134H94.4951ZM111.62 17.8103V19.49H107.542V29.0134H105.784V19.49H101.698V17.8103H111.62ZM111.323 21.4275H113.003V22.5369C113.154 22.1306 113.386 21.8181 113.698 21.5994C114.016 21.3806 114.399 21.2712 114.847 21.2712C115.472 21.2712 115.993 21.4796 116.409 21.8962C116.826 22.2973 117.034 22.8025 117.034 23.4119C117.034 23.766 116.998 24.0863 116.925 24.3728H115.261C115.302 24.1853 115.323 23.9718 115.323 23.7322C115.323 23.4353 115.216 23.1905 115.003 22.9978C114.795 22.8051 114.529 22.7087 114.206 22.7087C113.841 22.7087 113.55 22.8233 113.331 23.0525C113.112 23.2817 113.003 23.5889 113.003 23.9744V29.0134H111.323V21.4275ZM118.3 26.8572C118.3 26.0603 118.563 25.4561 119.089 25.0447C119.62 24.628 120.323 24.4197 121.198 24.4197C121.662 24.4197 122.11 24.4744 122.542 24.5837L123.339 24.7712V24.2166C123.339 23.7218 123.175 23.3337 122.847 23.0525C122.519 22.7712 122.097 22.6306 121.581 22.6306C121.086 22.6306 120.677 22.766 120.354 23.0369C120.037 23.3025 119.831 23.6671 119.737 24.1306L118.222 23.7322C118.394 22.9718 118.769 22.3728 119.347 21.9353C119.925 21.4926 120.67 21.2712 121.581 21.2712C122.659 21.2712 123.487 21.5343 124.065 22.0603C124.649 22.5863 124.94 23.3311 124.94 24.2947V29.0134H123.339V27.7322C123.167 28.1749 122.862 28.5264 122.425 28.7869C121.993 29.0421 121.451 29.1697 120.8 29.1697C120.138 29.1697 119.555 28.9587 119.05 28.5369C118.55 28.1098 118.3 27.5499 118.3 26.8572ZM123.339 26.1306V26.0525L122.729 25.8962C122.183 25.7556 121.763 25.6853 121.472 25.6853C121.034 25.6853 120.688 25.7712 120.433 25.9431C120.183 26.1098 120.058 26.3598 120.058 26.6931C120.058 27.0056 120.177 27.2582 120.417 27.4509C120.657 27.6384 121.008 27.7322 121.472 27.7322C122.029 27.7322 122.479 27.5889 122.823 27.3025C123.167 27.016 123.339 26.6254 123.339 26.1306ZM126.55 25.2712C126.55 24.0994 126.873 23.141 127.519 22.3962C128.164 21.6462 129.013 21.2712 130.065 21.2712C130.638 21.2712 131.141 21.4041 131.573 21.6697C132.006 21.9353 132.331 22.3025 132.55 22.7712V17.8103H134.229V29.0134H132.612V27.7322C132.383 28.1853 132.042 28.5395 131.589 28.7947C131.141 29.0447 130.633 29.1697 130.065 29.1697C129.013 29.1697 128.164 28.8051 127.519 28.0759C126.873 27.3468 126.55 26.4119 126.55 25.2712ZM131.964 27.0212C132.396 26.5733 132.612 25.99 132.612 25.2712C132.612 24.5525 132.394 23.9587 131.956 23.49C131.524 23.0212 131.011 22.7869 130.417 22.7869C129.808 22.7869 129.289 23.0212 128.862 23.49C128.44 23.9587 128.229 24.5525 128.229 25.2712C128.229 25.9952 128.438 26.5811 128.854 27.0291C129.292 27.4666 129.813 27.6853 130.417 27.6853C131.016 27.6853 131.532 27.4639 131.964 27.0212ZM136.276 21.4275H137.956V29.0134H136.276V21.4275ZM136.198 20.1306V18.2947H138.034V20.1306H136.198ZM141.69 29.0134H140.011V21.4275H141.69V22.5369C142.196 21.6931 142.99 21.2712 144.073 21.2712C144.875 21.2712 145.519 21.5212 146.003 22.0212C146.487 22.5212 146.729 23.1983 146.729 24.0525V29.0134H145.05V24.6306C145.05 24.0264 144.909 23.5551 144.628 23.2166C144.347 22.878 143.964 22.7087 143.479 22.7087C142.959 22.7087 142.529 22.8962 142.19 23.2712C141.857 23.6462 141.69 24.1514 141.69 24.7869V29.0134ZM148.729 29.9744L150.245 29.3337C150.365 29.8389 150.607 30.227 150.972 30.4978C151.336 30.7686 151.789 30.9041 152.331 30.9041C153.008 30.9041 153.511 30.6905 153.839 30.2634C154.167 29.8416 154.331 29.2374 154.331 28.4509V27.6541C154.128 28.0759 153.802 28.4093 153.354 28.6541C152.907 28.8936 152.378 29.0134 151.769 29.0134C150.789 29.0134 149.972 28.6671 149.315 27.9744C148.659 27.2764 148.331 26.3702 148.331 25.2556C148.331 24.0889 148.677 23.1332 149.37 22.3884C150.063 21.6436 150.917 21.2712 151.933 21.2712C153 21.2712 153.8 21.6645 154.331 22.4509V21.4275H156.011V28.3728C156.011 29.5759 155.69 30.5369 155.05 31.2556C154.404 31.9796 153.498 32.3416 152.331 32.3416C150.456 32.3416 149.256 31.5525 148.729 29.9744ZM154.394 25.1541C154.394 24.4457 154.185 23.8624 153.769 23.4041C153.352 22.9405 152.828 22.7087 152.198 22.7087C151.558 22.7087 151.032 22.9431 150.62 23.4119C150.214 23.8754 150.011 24.49 150.011 25.2556C150.011 25.9587 150.214 26.5212 150.62 26.9431C151.032 27.365 151.558 27.5759 152.198 27.5759C152.828 27.5759 153.352 27.352 153.769 26.9041C154.185 26.4405 154.394 25.8572 154.394 25.1541ZM165.901 19.3337C165.302 19.3337 164.818 19.4639 164.448 19.7244C164.084 19.9796 163.901 20.3025 163.901 20.6931C163.901 21.0212 164.024 21.3077 164.269 21.5525C164.519 21.7973 164.844 21.9926 165.245 22.1384C165.646 22.2843 166.154 22.4171 166.769 22.5369C168.076 22.7869 169.045 23.1749 169.675 23.7009C170.305 24.2218 170.62 24.9249 170.62 25.8103C170.62 26.7791 170.214 27.5811 169.401 28.2166C168.589 28.852 167.539 29.1697 166.253 29.1697C165.185 29.1697 164.183 28.9145 163.245 28.4041C162.318 27.8728 161.657 26.9822 161.261 25.7322L162.94 24.6931C163.138 25.5942 163.526 26.2869 164.104 26.7712C164.683 27.2504 165.404 27.49 166.269 27.49C167.029 27.49 167.638 27.3442 168.097 27.0525C168.555 26.7556 168.784 26.3702 168.784 25.8962C168.784 25.4379 168.578 25.0681 168.167 24.7869C167.761 24.5056 167.086 24.2869 166.144 24.1306C164.815 23.9014 163.815 23.5134 163.144 22.9666C162.477 22.4197 162.144 21.6671 162.144 20.7087C162.144 19.865 162.511 19.1462 163.245 18.5525C163.985 17.9535 164.925 17.6541 166.065 17.6541C167.013 17.6541 167.852 17.8936 168.581 18.3728C169.315 18.852 169.836 19.5186 170.144 20.3728L168.464 21.3337C168.308 20.6879 168.013 20.1931 167.581 19.8494C167.149 19.5056 166.589 19.3337 165.901 19.3337ZM172.987 26.615V22.8728H171.464V21.4275H172.987V19.0134H174.667V21.4275H177.542V22.8728H174.667V26.6931C174.667 27.0264 174.756 27.2843 174.933 27.4666C175.115 27.6436 175.344 27.7322 175.62 27.7322C175.943 27.7322 176.19 27.628 176.362 27.4197C176.534 27.2113 176.636 26.8884 176.667 26.4509L178.261 26.7712C178.193 27.5317 177.933 28.1228 177.479 28.5447C177.026 28.9613 176.435 29.1697 175.706 29.1697C174.826 29.1697 174.151 28.9457 173.683 28.4978C173.219 28.0499 172.987 27.4223 172.987 26.615ZM179.636 21.4275H181.315V22.5369C181.466 22.1306 181.698 21.8181 182.011 21.5994C182.328 21.3806 182.711 21.2712 183.159 21.2712C183.784 21.2712 184.305 21.4796 184.722 21.8962C185.138 22.2973 185.347 22.8025 185.347 23.4119C185.347 23.766 185.31 24.0863 185.237 24.3728H183.573C183.615 24.1853 183.636 23.9718 183.636 23.7322C183.636 23.4353 183.529 23.1905 183.315 22.9978C183.107 22.8051 182.841 22.7087 182.519 22.7087C182.154 22.7087 181.862 22.8233 181.644 23.0525C181.425 23.2817 181.315 23.5889 181.315 23.9744V29.0134H179.636V21.4275ZM186.612 26.8572C186.612 26.0603 186.875 25.4561 187.401 25.0447C187.933 24.628 188.636 24.4197 189.511 24.4197C189.974 24.4197 190.422 24.4744 190.854 24.5837L191.651 24.7712V24.2166C191.651 23.7218 191.487 23.3337 191.159 23.0525C190.831 22.7712 190.409 22.6306 189.894 22.6306C189.399 22.6306 188.99 22.766 188.667 23.0369C188.349 23.3025 188.144 23.6671 188.05 24.1306L186.534 23.7322C186.706 22.9718 187.081 22.3728 187.659 21.9353C188.237 21.4926 188.982 21.2712 189.894 21.2712C190.972 21.2712 191.8 21.5343 192.378 22.0603C192.961 22.5863 193.253 23.3311 193.253 24.2947V29.0134H191.651V27.7322C191.479 28.1749 191.175 28.5264 190.737 28.7869C190.305 29.0421 189.763 29.1697 189.112 29.1697C188.451 29.1697 187.868 28.9587 187.362 28.5369C186.862 28.1098 186.612 27.5499 186.612 26.8572ZM191.651 26.1306V26.0525L191.042 25.8962C190.495 25.7556 190.076 25.6853 189.784 25.6853C189.347 25.6853 189 25.7712 188.745 25.9431C188.495 26.1098 188.37 26.3598 188.37 26.6931C188.37 27.0056 188.49 27.2582 188.729 27.4509C188.969 27.6384 189.321 27.7322 189.784 27.7322C190.341 27.7322 190.792 27.5889 191.136 27.3025C191.479 27.016 191.651 26.6254 191.651 26.1306ZM195.675 26.615V22.8728H194.151V21.4275H195.675V19.0134H197.354V21.4275H200.229V22.8728H197.354V26.6931C197.354 27.0264 197.443 27.2843 197.62 27.4666C197.802 27.6436 198.032 27.7322 198.308 27.7322C198.631 27.7322 198.878 27.628 199.05 27.4197C199.222 27.2113 199.323 26.8884 199.354 26.4509L200.948 26.7712C200.881 27.5317 200.62 28.1228 200.167 28.5447C199.714 28.9613 199.123 29.1697 198.394 29.1697C197.513 29.1697 196.839 28.9457 196.37 28.4978C195.907 28.0499 195.675 27.4223 195.675 26.615ZM207.644 26.1306L209.081 26.6931C208.81 27.4952 208.381 28.1098 207.792 28.5369C207.203 28.9587 206.466 29.1697 205.581 29.1697C204.404 29.1697 203.453 28.8077 202.729 28.0837C202.006 27.3546 201.644 26.3832 201.644 25.1697C201.644 24.0603 201.985 23.1332 202.667 22.3884C203.354 21.6436 204.245 21.2712 205.339 21.2712C206.344 21.2712 207.164 21.5759 207.8 22.1853C208.44 22.7895 208.761 23.5994 208.761 24.615C208.761 24.8754 208.735 25.1671 208.683 25.49H203.323C203.323 26.2244 203.547 26.7843 203.995 27.1697C204.464 27.5447 204.998 27.7322 205.597 27.7322C206.138 27.7322 206.584 27.5968 206.933 27.3259C207.287 27.0499 207.524 26.6514 207.644 26.1306ZM203.323 24.3728H207.081L207.097 24.2322C207.097 23.7686 206.93 23.3988 206.597 23.1228C206.269 22.8468 205.844 22.7087 205.323 22.7087C204.797 22.7087 204.349 22.8598 203.979 23.1619C203.61 23.4639 203.391 23.8676 203.323 24.3728ZM210.542 29.9744L212.058 29.3337C212.177 29.8389 212.42 30.227 212.784 30.4978C213.149 30.7686 213.602 30.9041 214.144 30.9041C214.821 30.9041 215.323 30.6905 215.651 30.2634C215.979 29.8416 216.144 29.2374 216.144 28.4509V27.6541C215.94 28.0759 215.615 28.4093 215.167 28.6541C214.719 28.8936 214.19 29.0134 213.581 29.0134C212.602 29.0134 211.784 28.6671 211.128 27.9744C210.472 27.2764 210.144 26.3702 210.144 25.2556C210.144 24.0889 210.49 23.1332 211.183 22.3884C211.875 21.6436 212.729 21.2712 213.745 21.2712C214.813 21.2712 215.612 21.6645 216.144 22.4509V21.4275H217.823V28.3728C217.823 29.5759 217.503 30.5369 216.862 31.2556C216.216 31.9796 215.31 32.3416 214.144 32.3416C212.269 32.3416 211.068 31.5525 210.542 29.9744ZM216.206 25.1541C216.206 24.4457 215.998 23.8624 215.581 23.4041C215.164 22.9405 214.641 22.7087 214.011 22.7087C213.37 22.7087 212.844 22.9431 212.433 23.4119C212.026 23.8754 211.823 24.49 211.823 25.2556C211.823 25.9587 212.026 26.5212 212.433 26.9431C212.844 27.365 213.37 27.5759 214.011 27.5759C214.641 27.5759 215.164 27.352 215.581 26.9041C215.998 26.4405 216.206 25.8572 216.206 25.1541ZM225.042 21.4275H226.8L221.675 32.1853H219.917L221.948 27.8962L218.956 21.4275H220.769L222.831 26.0681L225.042 21.4275Z" fill="white"/>
<rect x="81.3154" y="38.6711" width="82.6667" height="3.32886" rx="1.66443" fill="white" fill-opacity="0.2"/>
<rect x="81.3154" y="48.6577" width="134.264" height="3.32886" rx="1.66443" fill="white" fill-opacity="0.2"/>
<rect x="0.55481" y="0.55481" width="258.206" height="66.8904" rx="13.3154" stroke="url(#paint2_linear_269_119934)" stroke-opacity="0.6" stroke-width="1.10962"/>
<rect x="0.55481" y="0.55481" width="258.206" height="66.8904" rx="13.3154" stroke="url(#paint3_linear_269_119934)" stroke-width="1.10962"/>
</g>
<defs>
<filter id="filter0_b_269_119934" x="-23.8568" y="-23.8568" width="307.029" height="115.714" filterUnits="userSpaceOnUse" color-interpolation-filters="sRGB">
<feFlood flood-opacity="0" result="BackgroundImageFix"/>
<feGaussianBlur in="BackgroundImageFix" stdDeviation="11.9284"/>
<feComposite in2="SourceAlpha" operator="in" result="effect1_backgroundBlur_269_119934"/>
<feBlend mode="normal" in="SourceGraphic" in2="effect1_backgroundBlur_269_119934" result="shape"/>
</filter>
<linearGradient id="paint0_linear_269_119934" x1="129.658" y1="0" x2="129.658" y2="68" gradientUnits="userSpaceOnUse">
<stop stop-color="#EBFE64" stop-opacity="0.1"/>
<stop offset="1" stop-color="#8CEA69" stop-opacity="0.1"/>
</linearGradient>
<linearGradient id="paint1_linear_269_119934" x1="32" y1="16" x2="68" y2="54.25" gradientUnits="userSpaceOnUse">
<stop stop-color="#64D9FE"/>
<stop offset="1" stop-color="#8CEA69"/>
</linearGradient>
<linearGradient id="paint2_linear_269_119934" x1="309.042" y1="27.1842" x2="221.679" y2="37.7579" gradientUnits="userSpaceOnUse">
<stop stop-color="white"/>
<stop offset="1" stop-color="#EFEFEF" stop-opacity="0"/>
</linearGradient>
<linearGradient id="paint3_linear_269_119934" x1="0" y1="0" x2="26.3436" y2="53.3998" gradientUnits="userSpaceOnUse">
<stop stop-color="white" stop-opacity="0.5"/>
<stop offset="1" stop-color="white" stop-opacity="0"/>
</linearGradient>
</defs>
</svg>
