<svg width="248" height="68" viewBox="0 0 248 68" fill="none" xmlns="http://www.w3.org/2000/svg">
<g filter="url(#filter0_b_269_119966)">
<rect width="247.579" height="68" rx="13.8702" fill="url(#paint0_linear_269_119966)" fill-opacity="0.3"/>
<rect x="32" y="16" width="36" height="36" rx="8" fill="url(#paint1_linear_269_119966)"/>
<path fill-rule="evenodd" clip-rule="evenodd" d="M50.0429 26.3125C51.6859 26.3125 52.9764 26.3125 53.984 26.4479C55.0164 26.5868 55.8357 26.877 56.4793 27.5207C57.123 28.1643 57.4132 28.9835 57.5521 30.016C57.6875 31.0236 57.6875 32.3141 57.6875 33.9571V34.0429C57.6875 35.6859 57.6875 36.9764 57.5521 37.984C57.4132 39.0164 57.123 39.8357 56.4793 40.4793C55.8357 41.123 55.0164 41.4132 53.984 41.5521C52.9764 41.6875 51.6859 41.6875 50.0429 41.6875H49.9571C48.3141 41.6875 47.0236 41.6875 46.016 41.5521C44.9835 41.4132 44.1643 41.123 43.5207 40.4793C42.877 39.8357 42.5868 39.0164 42.4479 37.984C42.3125 36.9764 42.3125 35.6859 42.3125 34.0429V33.9571C42.3125 32.3141 42.3125 31.0236 42.4479 30.016C42.5868 28.9835 42.877 28.1643 43.5207 27.5207C44.1643 26.877 44.9835 26.5868 46.016 26.4479C47.0236 26.3125 48.3141 26.3125 49.9571 26.3125H50.0429ZM46.25 36.4375C46.5607 36.4375 46.8125 36.6894 46.8125 37V38.5C46.8125 38.8106 46.5607 39.0625 46.25 39.0625C45.9393 39.0625 45.6875 38.8106 45.6875 38.5V37C45.6875 36.6894 45.9393 36.4375 46.25 36.4375ZM50.5625 36.25C50.5625 35.9394 50.3106 35.6875 50 35.6875C49.6894 35.6875 49.4375 35.9394 49.4375 36.25V38.5C49.4375 38.8106 49.6894 39.0625 50 39.0625C50.3106 39.0625 50.5625 38.8106 50.5625 38.5V36.25ZM53.75 34.1875C54.0606 34.1875 54.3125 34.4394 54.3125 34.75V38.5C54.3125 38.8106 54.0606 39.0625 53.75 39.0625C53.4394 39.0625 53.1875 38.8106 53.1875 38.5V34.75C53.1875 34.4394 53.4394 34.1875 53.75 34.1875ZM52.8942 28.9392C53.0676 28.9313 53.277 28.9472 53.4835 29.0646C53.6978 29.1864 53.8167 29.3643 53.8918 29.5308C53.9536 29.6676 54.0012 29.8342 54.0448 29.9864L54.0522 30.0122L54.2908 30.8451C54.3763 31.1437 54.2036 31.4552 53.905 31.5407C53.6063 31.6263 53.2948 31.4536 53.2092 31.1549L53.0992 30.7709C51.4239 33.1794 48.7415 34.1875 45.5 34.1875C45.1893 34.1875 44.9375 33.9356 44.9375 33.625C44.9375 33.3144 45.1893 33.0625 45.5 33.0625C48.4645 33.0625 50.7225 32.1684 52.1344 30.1865L51.5916 30.2761C51.285 30.3267 50.9956 30.1192 50.945 29.8126C50.8945 29.5061 51.1019 29.2167 51.4084 29.1661L52.3592 29.0093L52.3841 29.0052C52.5622 28.9757 52.7409 28.9462 52.8942 28.9392Z" fill="#020202"/>
<path d="M91.6826 17.8103V19.49H87.6045V29.0134H85.8467V19.49H81.7607V17.8103H91.6826ZM91.3857 21.4275H93.0654V22.5369C93.2165 22.1306 93.4482 21.8181 93.7607 21.5994C94.0785 21.3806 94.4613 21.2712 94.9092 21.2712C95.5342 21.2712 96.055 21.4796 96.4717 21.8962C96.8883 22.2973 97.0967 22.8025 97.0967 23.4119C97.0967 23.766 97.0602 24.0863 96.9873 24.3728H95.3232C95.3649 24.1853 95.3857 23.9718 95.3857 23.7322C95.3857 23.4353 95.279 23.1905 95.0654 22.9978C94.8571 22.8051 94.5915 22.7087 94.2686 22.7087C93.904 22.7087 93.6123 22.8233 93.3936 23.0525C93.1748 23.2817 93.0654 23.5889 93.0654 23.9744V29.0134H91.3857V21.4275ZM98.3623 26.8572C98.3623 26.0603 98.6253 25.4561 99.1514 25.0447C99.6826 24.628 100.386 24.4197 101.261 24.4197C101.724 24.4197 102.172 24.4744 102.604 24.5837L103.401 24.7712V24.2166C103.401 23.7218 103.237 23.3337 102.909 23.0525C102.581 22.7712 102.159 22.6306 101.644 22.6306C101.149 22.6306 100.74 22.766 100.417 23.0369C100.099 23.3025 99.8936 23.6671 99.7998 24.1306L98.2842 23.7322C98.4561 22.9718 98.8311 22.3728 99.4092 21.9353C99.9873 21.4926 100.732 21.2712 101.644 21.2712C102.722 21.2712 103.55 21.5343 104.128 22.0603C104.711 22.5863 105.003 23.3311 105.003 24.2947V29.0134H103.401V27.7322C103.229 28.1749 102.925 28.5264 102.487 28.7869C102.055 29.0421 101.513 29.1697 100.862 29.1697C100.201 29.1697 99.6175 28.9587 99.1123 28.5369C98.6123 28.1098 98.3623 27.5499 98.3623 26.8572ZM103.401 26.1306V26.0525L102.792 25.8962C102.245 25.7556 101.826 25.6853 101.534 25.6853C101.097 25.6853 100.75 25.7712 100.495 25.9431C100.245 26.1098 100.12 26.3598 100.12 26.6931C100.12 27.0056 100.24 27.2582 100.479 27.4509C100.719 27.6384 101.071 27.7322 101.534 27.7322C102.091 27.7322 102.542 27.5889 102.886 27.3025C103.229 27.016 103.401 26.6254 103.401 26.1306ZM106.612 25.2712C106.612 24.0994 106.935 23.141 107.581 22.3962C108.227 21.6462 109.076 21.2712 110.128 21.2712C110.701 21.2712 111.203 21.4041 111.636 21.6697C112.068 21.9353 112.394 22.3025 112.612 22.7712V17.8103H114.292V29.0134H112.675V27.7322C112.446 28.1853 112.104 28.5395 111.651 28.7947C111.203 29.0447 110.696 29.1697 110.128 29.1697C109.076 29.1697 108.227 28.8051 107.581 28.0759C106.935 27.3468 106.612 26.4119 106.612 25.2712ZM112.026 27.0212C112.459 26.5733 112.675 25.99 112.675 25.2712C112.675 24.5525 112.456 23.9587 112.019 23.49C111.586 23.0212 111.073 22.7869 110.479 22.7869C109.87 22.7869 109.352 23.0212 108.925 23.49C108.503 23.9587 108.292 24.5525 108.292 25.2712C108.292 25.9952 108.5 26.5811 108.917 27.0291C109.354 27.4666 109.875 27.6853 110.479 27.6853C111.078 27.6853 111.594 27.4639 112.026 27.0212ZM121.894 26.1306L123.331 26.6931C123.06 27.4952 122.631 28.1098 122.042 28.5369C121.453 28.9587 120.716 29.1697 119.831 29.1697C118.654 29.1697 117.703 28.8077 116.979 28.0837C116.256 27.3546 115.894 26.3832 115.894 25.1697C115.894 24.0603 116.235 23.1332 116.917 22.3884C117.604 21.6436 118.495 21.2712 119.589 21.2712C120.594 21.2712 121.414 21.5759 122.05 22.1853C122.69 22.7895 123.011 23.5994 123.011 24.615C123.011 24.8754 122.985 25.1671 122.933 25.49H117.573C117.573 26.2244 117.797 26.7843 118.245 27.1697C118.714 27.5447 119.248 27.7322 119.847 27.7322C120.388 27.7322 120.834 27.5968 121.183 27.3259C121.537 27.0499 121.774 26.6514 121.894 26.1306ZM117.573 24.3728H121.331L121.347 24.2322C121.347 23.7686 121.18 23.3988 120.847 23.1228C120.519 22.8468 120.094 22.7087 119.573 22.7087C119.047 22.7087 118.599 22.8598 118.229 23.1619C117.86 23.4639 117.641 23.8676 117.573 24.3728ZM124.839 21.4275H126.519V22.5369C126.67 22.1306 126.901 21.8181 127.214 21.5994C127.532 21.3806 127.914 21.2712 128.362 21.2712C128.987 21.2712 129.508 21.4796 129.925 21.8962C130.341 22.2973 130.55 22.8025 130.55 23.4119C130.55 23.766 130.513 24.0863 130.44 24.3728H128.776C128.818 24.1853 128.839 23.9718 128.839 23.7322C128.839 23.4353 128.732 23.1905 128.519 22.9978C128.31 22.8051 128.045 22.7087 127.722 22.7087C127.357 22.7087 127.065 22.8233 126.847 23.0525C126.628 23.2817 126.519 23.5889 126.519 23.9744V29.0134H124.839V21.4275ZM131.433 27.0916L132.792 26.3728C132.99 26.8416 133.261 27.1853 133.604 27.4041C133.948 27.6228 134.383 27.7322 134.909 27.7322C135.352 27.7322 135.698 27.6514 135.948 27.49C136.203 27.3285 136.331 27.1176 136.331 26.8572C136.331 26.5082 136.201 26.2478 135.94 26.0759C135.68 25.9041 135.185 25.7582 134.456 25.6384C132.722 25.3572 131.854 24.615 131.854 23.4119C131.854 22.7921 132.128 22.2817 132.675 21.8806C133.227 21.4744 133.896 21.2712 134.683 21.2712C135.391 21.2712 135.966 21.4119 136.409 21.6931C136.857 21.9692 137.209 22.378 137.464 22.9197L136.19 23.6228C135.961 22.9509 135.464 22.615 134.698 22.615C134.323 22.615 134.008 22.6957 133.753 22.8572C133.498 23.0186 133.37 23.2139 133.37 23.4431C133.37 23.7296 133.506 23.9405 133.776 24.0759C134.047 24.2061 134.552 24.3259 135.292 24.4353C136.214 24.5707 136.883 24.8285 137.3 25.2087C137.722 25.5889 137.933 26.1098 137.933 26.7712C137.933 27.4692 137.636 28.0447 137.042 28.4978C136.453 28.9457 135.722 29.1697 134.847 29.1697C133.993 29.1697 133.276 28.9874 132.698 28.6228C132.12 28.2582 131.698 27.7478 131.433 27.0916Z" fill="white"/>
<rect x="81.3154" y="38.6711" width="82.6667" height="3.32886" rx="1.66443" fill="white" fill-opacity="0.2"/>
<rect x="81.3154" y="48.6577" width="134.264" height="3.32886" rx="1.66443" fill="white" fill-opacity="0.2"/>
<rect x="0.55481" y="0.55481" width="246.47" height="66.8904" rx="13.3154" stroke="url(#paint2_linear_269_119966)" stroke-opacity="0.6" stroke-width="1.10962"/>
<rect x="0.55481" y="0.55481" width="246.47" height="66.8904" rx="13.3154" stroke="url(#paint3_linear_269_119966)" stroke-width="1.10962"/>
</g>
<defs>
<filter id="filter0_b_269_119966" x="-23.8568" y="-23.8568" width="295.293" height="115.714" filterUnits="userSpaceOnUse" color-interpolation-filters="sRGB">
<feFlood flood-opacity="0" result="BackgroundImageFix"/>
<feGaussianBlur in="BackgroundImageFix" stdDeviation="11.9284"/>
<feComposite in2="SourceAlpha" operator="in" result="effect1_backgroundBlur_269_119966"/>
<feBlend mode="normal" in="SourceGraphic" in2="effect1_backgroundBlur_269_119966" result="shape"/>
</filter>
<linearGradient id="paint0_linear_269_119966" x1="123.79" y1="0" x2="123.79" y2="68" gradientUnits="userSpaceOnUse">
<stop stop-color="#EBFE64" stop-opacity="0.1"/>
<stop offset="1" stop-color="#8CEA69" stop-opacity="0.1"/>
</linearGradient>
<linearGradient id="paint1_linear_269_119966" x1="32" y1="16" x2="68" y2="52" gradientUnits="userSpaceOnUse">
<stop stop-color="#AF7DFF"/>
<stop offset="1" stop-color="#69EAE2"/>
</linearGradient>
<linearGradient id="paint2_linear_269_119966" x1="295.056" y1="27.1842" x2="211.54" y2="36.8348" gradientUnits="userSpaceOnUse">
<stop stop-color="white"/>
<stop offset="1" stop-color="#EFEFEF" stop-opacity="0"/>
</linearGradient>
<linearGradient id="paint3_linear_269_119966" x1="0" y1="0" x2="27.078" y2="52.4043" gradientUnits="userSpaceOnUse">
<stop stop-color="white" stop-opacity="0.5"/>
<stop offset="1" stop-color="white" stop-opacity="0"/>
</linearGradient>
</defs>
</svg>
