<svg width="146" height="34" viewBox="0 0 146 34" fill="none" xmlns="http://www.w3.org/2000/svg">
<path d="M7.98798 25.6722L0 8H4.10571L10.9486 23.9514H9.66378L16.4787 8H20.5286L12.6244 25.6722H7.98798Z" fill="white"/>
<path d="M33.5987 21.1654H37.1179C36.9689 22.0941 36.5686 22.9226 35.9169 23.651C35.2838 24.3794 34.418 24.953 33.3194 25.3718C32.2208 25.7906 30.8802 26 29.2975 26C27.5286 26 25.9645 25.7269 24.6052 25.1806C23.246 24.6161 22.1846 23.8058 21.4212 22.7496C20.6578 21.6935 20.2761 20.4188 20.2761 18.9256C20.2761 17.4325 20.6485 16.1578 21.3933 15.1017C22.1381 14.0273 23.1715 13.2079 24.4935 12.6434C25.8342 12.0789 27.3983 11.7967 29.1858 11.7967C31.0105 11.7967 32.5281 12.0789 33.7384 12.6434C34.9487 13.2079 35.8424 14.0637 36.4196 15.2109C37.0155 16.3399 37.2669 17.7876 37.1738 19.5539H23.9349C24.028 20.2458 24.2887 20.8741 24.717 21.4385C25.1639 22.003 25.7597 22.4492 26.5045 22.7769C27.2679 23.1047 28.171 23.2686 29.2137 23.2686C30.3681 23.2686 31.3271 23.0774 32.0905 22.695C32.8725 22.2944 33.3753 21.7845 33.5987 21.1654ZM29.0182 14.5008C27.6776 14.5008 26.5883 14.7921 25.7504 15.3748C24.9125 15.9393 24.3725 16.6404 24.1304 17.478H33.5708C33.4777 16.5675 33.0308 15.8483 32.2301 15.3202C31.4481 14.7739 30.3775 14.5008 29.0182 14.5008Z" fill="white"/>
<path d="M39.8755 12.0971H43.5065V25.6722H39.8755V12.0971ZM48.8411 15.0197C47.7984 15.0197 46.8953 15.22 46.1319 15.6206C45.3685 16.003 44.754 16.4765 44.2885 17.041C43.823 17.6055 43.4971 18.1517 43.3109 18.6798L43.283 17.1775C43.3016 16.959 43.3761 16.6404 43.5065 16.2215C43.6368 15.7845 43.8323 15.3202 44.093 14.8285C44.3537 14.3187 44.6981 13.8361 45.1264 13.3809C45.5546 12.9074 46.076 12.525 46.6905 12.2337C47.3049 11.9423 48.0218 11.7967 48.8411 11.7967V15.0197Z" fill="white"/>
<path d="M50.5271 21.1654H53.8787C54.0836 21.7845 54.5025 22.2944 55.1356 22.695C55.7873 23.0774 56.6345 23.2686 57.6772 23.2686C58.3848 23.2686 58.9341 23.2049 59.3251 23.0774C59.7161 22.9499 59.9861 22.7678 60.1351 22.5311C60.284 22.2762 60.3585 21.9939 60.3585 21.6844C60.3585 21.302 60.2375 21.0106 59.9954 20.8103C59.7534 20.5918 59.381 20.4188 58.8782 20.2914C58.3755 20.1639 57.7331 20.0455 56.951 19.9363C56.169 19.8088 55.4149 19.654 54.6887 19.4719C53.9625 19.2898 53.3201 19.0531 52.7615 18.7618C52.2029 18.4522 51.7561 18.0698 51.4209 17.6146C51.1044 17.1411 50.9461 16.5675 50.9461 15.8938C50.9461 15.2382 51.1044 14.6555 51.4209 14.1457C51.7561 13.6358 52.2122 13.2079 52.7895 12.8619C53.3853 12.5159 54.0743 12.2519 54.8563 12.0698C55.657 11.8877 56.5135 11.7967 57.4259 11.7967C58.8037 11.7967 59.9489 11.997 60.8612 12.3976C61.7736 12.78 62.4533 13.3263 62.9001 14.0364C63.3656 14.7284 63.5984 15.5296 63.5984 16.4401H60.3864C60.2375 15.7663 59.9396 15.2838 59.4927 14.9924C59.0458 14.6829 58.3569 14.5281 57.4259 14.5281C56.5135 14.5281 55.8245 14.6646 55.359 14.9378C54.8935 15.2109 54.6608 15.5842 54.6608 16.0577C54.6608 16.4401 54.8004 16.7405 55.0797 16.959C55.3776 17.1593 55.8059 17.3232 56.3645 17.4507C56.9417 17.5781 57.6586 17.7147 58.5151 17.8604C59.2413 18.0061 59.9302 18.17 60.5819 18.352C61.2523 18.5341 61.8481 18.7709 62.3695 19.0622C62.8908 19.3354 63.3005 19.7086 63.5984 20.1821C63.9149 20.6373 64.0732 21.22 64.0732 21.9302C64.0732 22.8042 63.8125 23.5417 63.2912 24.1426C62.7884 24.7436 62.0622 25.2079 61.1126 25.5357C60.163 25.8452 59.0272 26 57.7052 26C56.5321 26 55.5173 25.8816 54.6608 25.6449C53.8229 25.39 53.1246 25.0713 52.566 24.6889C52.0074 24.2883 51.5699 23.8695 51.2533 23.4325C50.9554 22.9772 50.7506 22.5493 50.6389 22.1487C50.5271 21.7481 50.4899 21.4203 50.5271 21.1654Z" fill="white"/>
<path d="M73.61 25.9727C72.2321 25.9727 70.9753 25.6813 69.8394 25.0986C68.7222 24.4977 67.8285 23.6692 67.1581 22.613C66.5064 21.5387 66.1806 20.3005 66.1806 18.8983C66.1806 17.4598 66.5158 16.2124 67.1861 15.1563C67.8564 14.1002 68.7595 13.2807 69.8953 12.698C71.0497 12.0971 72.3531 11.7967 73.8055 11.7967C75.4068 11.7967 76.6916 12.1153 77.6598 12.7527C78.6467 13.3718 79.3636 14.2185 79.8104 15.2929C80.2573 16.3672 80.4808 17.569 80.4808 18.8983C80.4808 19.6995 80.3504 20.519 80.0897 21.3566C79.8291 22.176 79.4287 22.9408 78.8888 23.651C78.3488 24.3429 77.6412 24.9074 76.7661 25.3445C75.8909 25.7633 74.8389 25.9727 73.61 25.9727ZM74.783 23.2413C75.8816 23.2413 76.8312 23.0592 77.6319 22.695C78.4326 22.3308 79.047 21.8209 79.4753 21.1654C79.9035 20.5099 80.1177 19.7542 80.1177 18.8983C80.1177 17.9697 79.8942 17.1866 79.4474 16.5493C79.0191 15.8938 78.4046 15.4021 77.604 15.0744C76.8219 14.7284 75.8816 14.5554 74.783 14.5554C73.2376 14.5554 72.0366 14.956 71.1801 15.7572C70.3236 16.5402 69.8953 17.5873 69.8953 18.8983C69.8953 19.7724 70.1001 20.5372 70.5098 21.1927C70.9194 21.83 71.4873 22.3308 72.2135 22.695C72.9583 23.0592 73.8148 23.2413 74.783 23.2413ZM80.1177 12.0971H83.7486V25.6722H80.369C80.369 25.6722 80.3411 25.4992 80.2853 25.1533C80.248 24.7891 80.2108 24.3338 80.1735 23.7876C80.1363 23.2413 80.1177 22.7041 80.1177 22.176V12.0971Z" fill="white"/>
<path d="M97.8436 8C99.8732 8 101.568 8.23672 102.927 8.71017C104.286 9.18361 105.366 9.83005 106.167 10.6495C106.986 11.4507 107.563 12.3794 107.898 13.4355C108.252 14.4917 108.429 15.6024 108.429 16.7678C108.429 17.9332 108.234 19.0531 107.843 20.1275C107.47 21.2018 106.865 22.1578 106.027 22.9954C105.208 23.8149 104.119 24.4704 102.759 24.9621C101.419 25.4355 99.7801 25.6722 97.8436 25.6722H87.5095V8H97.8436ZM91.2242 22.5584H97.7598C99.1005 22.5584 100.208 22.4036 101.084 22.0941C101.977 21.7663 102.685 21.3293 103.206 20.783C103.728 20.2367 104.1 19.6176 104.323 18.9256C104.547 18.2337 104.659 17.5144 104.659 16.7678C104.659 16.0212 104.547 15.3111 104.323 14.6373C104.1 13.9636 103.728 13.3627 103.206 12.8346C102.685 12.3065 101.977 11.8877 101.084 11.5781C100.208 11.2686 99.1005 11.1138 97.7598 11.1138H91.2242V22.5584Z" fill="white"/>
<path d="M124.235 21.1654H127.754C127.605 22.0941 127.205 22.9226 126.553 23.651C125.92 24.3794 125.054 24.953 123.956 25.3718C122.857 25.7906 121.516 26 119.934 26C118.165 26 116.601 25.7269 115.241 25.1806C113.882 24.6161 112.821 23.8058 112.057 22.7496C111.294 21.6935 110.912 20.4188 110.912 18.9256C110.912 17.4325 111.285 16.1578 112.029 15.1017C112.774 14.0273 113.808 13.2079 115.13 12.6434C116.47 12.0789 118.034 11.7967 119.822 11.7967C121.647 11.7967 123.164 12.0789 124.375 12.6434C125.585 13.2079 126.479 14.0637 127.056 15.2109C127.652 16.3399 127.903 17.7876 127.81 19.5539H114.571C114.664 20.2458 114.925 20.8741 115.353 21.4385C115.8 22.003 116.396 22.4492 117.141 22.7769C117.904 23.1047 118.807 23.2686 119.85 23.2686C121.004 23.2686 121.963 23.0774 122.727 22.695C123.509 22.2944 124.011 21.7845 124.235 21.1654ZM119.654 14.5008C118.314 14.5008 117.224 14.7921 116.387 15.3748C115.549 15.9393 115.009 16.6404 114.767 17.478H124.207C124.114 16.5675 123.667 15.8483 122.866 15.3202C122.084 14.7739 121.014 14.5008 119.654 14.5008Z" fill="white"/>
<path d="M145.609 12.0971L138.403 19.6631L133.208 25.6722H128.767L136.28 17.7238L141.196 12.0971H145.609ZM128.767 12.0971H133.208L146 25.6722H141.559L136.169 19.7451L128.767 12.0971Z" fill="white"/>
</svg>
